<svg width="48" height="48" viewBox="0 0 48 48" fill="none" xmlns="http://www.w3.org/2000/svg">
<path opacity="0.5" fill-rule="evenodd" clip-rule="evenodd" d="M25.5 4C25.5 3.17157 24.8284 2.5 24 2.5C23.1716 2.5 22.5 3.17157 22.5 4V7H25.5V4ZM22.5 21V25H25.5V21H22.5ZM22.5 42.5V39H25.5V42.5H28C28.8284 42.5 29.5 43.1716 29.5 44C29.5 44.8284 28.8284 45.5 28 45.5H20C19.1716 45.5 18.5 44.8284 18.5 44C18.5 43.1716 19.1716 42.5 20 42.5H22.5Z" fill="#0787FE"/>
<path fill-rule="evenodd" clip-rule="evenodd" d="M34.999 7H13.407C12.0919 7 11.4343 7 10.8309 7.1964C10.5647 7.28305 10.3083 7.3974 10.066 7.53759C9.51666 7.85534 9.07732 8.3446 8.19865 9.32312C6.49725 11.2179 5.64654 12.1652 5.44173 13.2724C5.35276 13.7534 5.35276 14.2466 5.44173 14.7276C5.64654 15.8348 6.49725 16.7821 8.19865 18.6769C9.07732 19.6554 9.51666 20.1447 10.066 20.4624C10.3083 20.6026 10.5647 20.717 10.8309 20.8036C11.4343 21 12.0919 21 13.407 21H34.999C37.8079 21 39.2124 21 40.2213 20.3259C40.6581 20.034 41.0331 19.659 41.3249 19.2223C41.999 18.2134 41.999 16.8089 41.999 14C41.999 11.1911 41.999 9.78661 41.3249 8.77772C41.0331 8.34096 40.6581 7.96596 40.2213 7.67412C39.2124 7 37.8079 7 34.999 7ZM18 12.5C17.1716 12.5 16.5 13.1716 16.5 14C16.5 14.8284 17.1716 15.5 18 15.5H30C30.8284 15.5 31.5 14.8284 31.5 14C31.5 13.1716 30.8284 12.5 30 12.5H18Z" fill="#5548e1"/>
<path fill-rule="evenodd" clip-rule="evenodd" d="M34.591 25H12.999C10.1901 25 8.78564 25 7.77674 25.6741C7.33998 25.966 6.96498 26.341 6.67315 26.7777C5.99902 27.7866 5.99902 29.1911 5.99902 32C5.99902 34.8089 5.99902 36.2134 6.67315 37.2223C6.96498 37.659 7.33998 38.034 7.77674 38.3259C8.78564 39 10.1901 39 12.999 39H34.591C35.9062 39 36.5637 39 37.1672 38.8036C37.4334 38.7169 37.6897 38.6026 37.9321 38.4624C38.4814 38.1447 38.9207 37.6554 39.7994 36.6769C41.5008 34.7821 42.3515 33.8348 42.5563 32.7276C42.6453 32.2466 42.6453 31.7534 42.5563 31.2724C42.3515 30.1652 41.5008 29.2179 39.7994 27.3231C38.9207 26.3446 38.4814 25.8553 37.9321 25.5376C37.6897 25.3974 37.4334 25.283 37.1672 25.1964C36.5637 25 35.9062 25 34.591 25ZM16.5 32C16.5 31.1716 17.1716 30.5 18 30.5H30C30.8284 30.5 31.5 31.1716 31.5 32C31.5 32.8284 30.8284 33.5 30 33.5H18C17.1716 33.5 16.5 32.8284 16.5 32Z" fill="#5548e1"/>
</svg>
