<svg width="48" height="48" viewBox="0 0 48 48" fill="none" xmlns="http://www.w3.org/2000/svg">
<path d="M33.4274 4.25313C31.7567 3.39326 29.5836 4.78073 25.2373 7.55567L24.1129 8.27358C22.8778 9.06213 22.2603 9.4564 21.5672 9.56955C20.8742 9.68271 20.1841 9.50193 18.8038 9.14038L17.5472 8.81121C12.6901 7.53888 10.2616 6.90272 8.87103 8.26239C7.48048 9.62206 8.04885 12.0771 9.18558 16.9872L9.47967 18.2575C9.80269 19.6528 9.96421 20.3504 9.83306 21.0432C9.70192 21.7359 9.29297 22.3453 8.47507 23.5642L7.73043 24.6738C4.85219 28.963 3.41307 31.1076 4.22436 32.8078C5.03564 34.508 7.56004 34.6378 12.6088 34.8975L13.9151 34.9646C15.3497 35.0384 16.0671 35.0753 16.6791 35.3903C17.2911 35.7053 17.7285 36.2627 18.6033 37.3775L19.3996 38.3925C22.4779 42.3157 24.017 44.2773 25.909 43.9684C27.8009 43.6595 28.7927 41.2847 30.7763 36.5351L31.2895 35.3063C31.8532 33.9566 32.135 33.2818 32.6444 32.7837C33.1538 32.2856 33.833 32.0207 35.1916 31.4909L36.4284 31.0085C41.2091 29.144 43.5995 28.2117 43.9575 26.3206C44.3155 24.4295 42.404 22.832 38.5811 19.6369L37.5921 18.8103C36.5058 17.9024 35.9626 17.4484 35.6654 16.8256C35.3682 16.2028 35.3507 15.4816 35.3155 14.0393L35.2836 12.7262C35.1599 7.65075 35.0981 5.113 33.4274 4.25313Z" fill="#1B9BFF"/>
<path opacity="0.5" d="M39.0607 36.9393C38.4749 36.3536 37.5251 36.3536 36.9393 36.9393C36.3536 37.5251 36.3536 38.4749 36.9393 39.0607L40.9393 43.0607C41.5251 43.6464 42.4749 43.6464 43.0607 43.0607C43.6464 42.4749 43.6464 41.5251 43.0607 40.9393L39.0607 36.9393Z" fill="#1B9BFF"/>
</svg>
