<svg width="48" height="48" viewBox="0 0 48 48" fill="none" xmlns="http://www.w3.org/2000/svg">
<path opacity="0.5" fill-rule="evenodd" clip-rule="evenodd" d="M32 22H8V32C8 37.6569 8 40.4853 9.75736 42.2426C11.5147 44 14.3431 44 20 44H28C33.6569 44 36.4853 44 38.2426 42.2426C40 40.4853 40 37.6569 40 32V30C40 26.2288 40 24.3431 38.8284 23.1716C37.6569 22 35.7712 22 32 22Z" fill="#0787FE"/>
<path d="M28 33C28 32.1555 27.2056 31.586 25.6168 30.4469C24.0062 29.2923 23.201 28.715 22.6005 29.1389C22 29.5628 22 30.7085 22 33C22 35.2915 22 36.4372 22.6005 36.8611C23.201 37.285 24.0062 36.7077 25.6168 35.5531C27.2056 34.414 28 33.8445 28 33Z" fill="#0787FE"/>
<path d="M26.6351 16.3999L27.8359 6.33197L18.4144 8.85646L18.3325 9.42525L17.1243 19.5549L26.5617 17.0261L26.6351 16.3999Z" fill="#0787FE"/>
<path d="M6.96631 15.0298C6.55021 16.5827 7.034 18.3882 8.00159 21.9993L14 20.392L14.0781 19.7645L15.2789 9.69661L15.0727 9.75187C11.4616 10.7195 9.65604 11.2032 8.51923 12.3401C7.77449 13.0848 7.23891 14.0125 6.96631 15.0298Z" fill="#0787FE"/>
<path d="M36.4964 14.3642L29.6814 16.1902L30.8895 6.0606L31 5.51604C31.2576 5.46463 31.4781 5.43292 31.688 5.41916C34.1095 5.26044 36.3883 6.57608 37.4616 8.75258C37.723 9.28259 37.9034 9.95582 38.2642 11.3023C38.3844 11.7511 38.4446 11.9755 38.4574 12.1721C38.5103 12.9793 38.0718 13.7389 37.3463 14.0966C37.1696 14.1838 36.9452 14.2439 36.4964 14.3642Z" fill="#0787FE"/>
</svg>
