<svg width="48" height="48" viewBox="0 0 48 48" fill="none" xmlns="http://www.w3.org/2000/svg">
<path opacity="0.5" d="M8 21V5.5H40V21C40 27.1283 40 30.1924 37.9916 32.0962C35.9832 34 32.7507 34 26.2857 34H25.5H22.5H21.7143C15.2493 34 12.0168 34 10.0084 32.0962C8 30.1924 8 27.1283 8 21Z" fill="#5548e1"/>
<path d="M31.0607 18.0607C31.6464 17.4749 31.6464 16.5251 31.0607 15.9393C30.4749 15.3536 29.5251 15.3536 28.9393 15.9393L26.3536 18.5251C26.2134 18.6652 26.0998 18.7788 26 18.8754C25.9002 18.7788 25.7866 18.6652 25.6464 18.5251L24.4261 17.3047C24.1361 17.0146 23.8226 16.7008 23.5223 16.4717C23.1704 16.2032 22.6669 15.9142 22 15.9142C21.3331 15.9142 20.8296 16.2032 20.4777 16.4717C20.1773 16.7008 19.8638 17.0146 19.5738 17.3048L16.9393 19.9393C16.3536 20.5251 16.3536 21.4749 16.9393 22.0607C17.5251 22.6464 18.4749 22.6464 19.0607 22.0607L21.6464 19.4749C21.7866 19.3348 21.9002 19.2212 22 19.1246C22.0998 19.2212 22.2134 19.3348 22.3536 19.4749L23.5738 20.6952C23.8638 20.9854 24.1773 21.2992 24.4777 21.5283C24.8296 21.7968 25.3331 22.0858 26 22.0858C26.6669 22.0858 27.1704 21.7968 27.5223 21.5283C27.8227 21.2992 28.1362 20.9854 28.4262 20.6952L31.0607 18.0607Z" fill="#5548e1"/>
<path d="M4 2.5C3.17157 2.5 2.5 3.17157 2.5 4C2.5 4.82843 3.17157 5.5 4 5.5H8H40H44C44.8284 5.5 45.5 4.82843 45.5 4C45.5 3.17157 44.8284 2.5 44 2.5H4Z" fill="#5548e1"/>
<path d="M22.5003 34V41.0729L19.3295 42.6584C18.5885 43.0288 18.2882 43.9299 18.6587 44.6708C19.0292 45.4118 19.9302 45.7121 20.6711 45.3416L24.0003 43.6771L27.3295 45.3416C28.0705 45.7121 28.9715 45.4118 29.342 44.6708C29.7125 43.9299 29.4121 43.0288 28.6711 42.6584L25.5003 41.0729V34H22.5003Z" fill="#5548e1"/>
</svg>
