<svg width="48" height="48" viewBox="0 0 48 48" fill="none" xmlns="http://www.w3.org/2000/svg">
<path opacity="0.5" d="M4.00098 24C4.00098 14.5719 4.00098 9.85786 6.92991 6.92893C9.85884 4 14.5729 4 24.001 4C33.4291 4 38.1431 4 41.072 6.92893C44.001 9.85786 44.001 14.5719 44.001 24C44.001 33.4281 44.001 38.1421 41.072 41.0711C38.1431 44 33.4291 44 24.001 44C14.5729 44 9.85884 44 6.92991 41.0711C4.00098 38.1421 4.00098 33.4281 4.00098 24Z" fill="#5548e1"/>
<path d="M44 10C44 13.3137 41.3137 16 38 16C34.6863 16 32 13.3137 32 10C32 6.68629 34.6863 4 38 4C41.3137 4 44 6.68629 44 10Z" fill="#5548e1"/>
<path d="M29 21.5C28.1716 21.5 27.5 20.8284 27.5 20C27.5 19.1716 28.1716 18.5 29 18.5H34C34.8284 18.5 35.5 19.1716 35.5 20V25C35.5 25.8284 34.8284 26.5 34 26.5C33.1716 26.5 32.5 25.8284 32.5 25V23.6213L28.4749 27.6464C27.108 29.0133 24.892 29.0133 23.5251 27.6464L20.3536 24.4749C20.1583 24.2796 19.8417 24.2796 19.6464 24.4749L15.0607 29.0607C14.4749 29.6464 13.5251 29.6464 12.9393 29.0607C12.3536 28.4749 12.3536 27.5251 12.9393 26.9393L17.5251 22.3536C18.892 20.9867 21.108 20.9867 22.4749 22.3536L25.6464 25.5251C25.8417 25.7204 26.1583 25.7204 26.3536 25.5251L30.3787 21.5H29Z" fill="#5548e1"/>
</svg>
