<svg width="20" height="21" viewBox="0 0 20 21" fill="none" xmlns="http://www.w3.org/2000/svg">
<path opacity="0.5" d="M18.3332 10.4998C18.3332 15.1022 14.6022 18.8332 9.99984 18.8332C5.39746 18.8332 1.6665 15.1022 1.6665 10.4998C1.6665 5.89746 5.39746 2.1665 9.99984 2.1665C14.6022 2.1665 18.3332 5.89746 18.3332 10.4998Z" fill="white"/>
<path d="M13.3578 7.97481C13.6019 8.21888 13.6019 8.61461 13.3578 8.85869L9.19113 13.0254C8.94705 13.2694 8.55132 13.2694 8.30724 13.0254L6.64058 11.3587C6.3965 11.1146 6.3965 10.7189 6.64058 10.4748C6.88466 10.2307 7.28038 10.2307 7.52446 10.4748L8.74919 11.6995L10.6115 9.83717L12.4739 7.97481C12.718 7.73073 13.1137 7.73073 13.3578 7.97481Z" fill="white"/>
</svg>
