<svg width="48" height="48" viewBox="0 0 48 48" fill="none" xmlns="http://www.w3.org/2000/svg">
<path opacity="0.5" d="M4 22.5C4 16.701 8.02944 12 13 12C17.9706 12 22 16.701 22 22.5V40H8.46512C5.9991 40 4 37.6677 4 34.7907V22.5Z" fill="#0787FE"/>
<path opacity="0.8" d="M22 22.5V40H28H30H39.5862C42.0239 40 44 37.6945 44 34.8506V22.5C44 16.701 39.9706 12 35 12H13C17.9706 12 22 16.701 22 22.5Z" fill="#0787FE"/>
<path d="M19 40V44C19 44.8284 19.6716 45.5 20.5 45.5C21.3284 45.5 22 44.8284 22 44V40H19Z" fill="#0787FE"/>
<path d="M30 40H27V44C27 44.8284 27.6716 45.5 28.5 45.5C29.3284 45.5 30 44.8284 30 44V40Z" fill="#0787FE"/>
<path fill-rule="evenodd" clip-rule="evenodd" d="M8.5 32C8.5 31.1716 9.17157 30.5 10 30.5H16C16.8284 30.5 17.5 31.1716 17.5 32C17.5 32.8284 16.8284 33.5 16 33.5H10C9.17157 33.5 8.5 32.8284 8.5 32Z" fill="#0787FE"/>
<path fill-rule="evenodd" clip-rule="evenodd" d="M34.7692 13.1694L35.2814 13.0669C36.1128 12.9004 36.9726 12.9799 37.7627 13.2963C39.1433 13.8491 40.6531 13.9523 42.0916 13.5924L42.2145 13.5616C43.2619 13.2995 44 12.326 44 11.2067V6.94568C44 5.47005 42.6717 4.38289 41.2909 4.72843C40.498 4.92685 39.6657 4.86992 38.9047 4.56521L38.7585 4.50669C37.4845 3.99657 36.0981 3.86841 34.7574 4.13682L33.86 4.31647C32.7803 4.53264 32 5.51443 32 6.65692V20.5614C32 21.3559 32.6199 22 33.3846 22C34.1493 22 34.7692 21.3559 34.7692 20.5614V13.1694Z" fill="#0787FE"/>
</svg>
