<svg width="48" height="48" viewBox="0 0 48 48" fill="none" xmlns="http://www.w3.org/2000/svg">
<path fill-rule="evenodd" clip-rule="evenodd" d="M36.001 28C36.001 36.8366 28.8375 44 20.001 44C17.53 44 15.1898 43.4398 13.1005 42.4396C12.3824 42.0958 11.5688 41.9751 10.7997 42.1809L8.34767 42.837C6.41501 43.3541 4.64689 41.586 5.164 39.6533L5.82009 37.2012C6.02587 36.4321 5.90516 35.6186 5.56138 34.9005C4.56113 32.8112 4.00098 30.471 4.00098 28C4.00098 19.1634 11.1644 12 20.001 12C28.8375 12 36.001 19.1634 36.001 28ZM13.001 30C14.1055 30 15.001 29.1046 15.001 28C15.001 26.8954 14.1055 26 13.001 26C11.8964 26 11.001 26.8954 11.001 28C11.001 29.1046 11.8964 30 13.001 30ZM20.001 30C21.1055 30 22.001 29.1046 22.001 28C22.001 26.8954 21.1055 26 20.001 26C18.8964 26 18.001 26.8954 18.001 28C18.001 29.1046 18.8964 30 20.001 30ZM27.001 30C28.1055 30 29.001 29.1046 29.001 28C29.001 26.8954 28.1055 26 27.001 26C25.8964 26 25.001 26.8954 25.001 28C25.001 29.1046 25.8964 30 27.001 30Z" fill="#5548e1"/>
<path opacity="0.6" d="M35.9685 29.0169C36.1843 28.9276 36.3972 28.8326 36.6069 28.7322C37.1904 28.4529 37.8514 28.3548 38.4763 28.522L40.4686 29.055C42.0389 29.4752 43.4755 28.0386 43.0553 26.4683L42.5223 24.476C42.3551 23.8511 42.4531 23.1901 42.7325 22.6066C43.5452 20.9091 44.0003 19.0077 44.0003 17C44.0003 9.8203 38.18 4 31.0003 4C25.5802 4 20.9348 7.317 18.9834 12.0318C19.3196 12.0107 19.6587 12 20.0003 12C28.8368 12 36.0003 19.1634 36.0003 28C36.0003 28.3416 35.9896 28.6806 35.9685 29.0169Z" fill="#5548e1"/>
</svg>
