<svg width="48" height="48" viewBox="0 0 48 48" fill="none" xmlns="http://www.w3.org/2000/svg">
<path opacity="0.5" d="M27.2575 40.9437L26.1733 42.7754C25.207 44.408 22.7929 44.408 21.8266 42.7754L20.7424 40.9437C19.9015 39.5229 19.481 38.8125 18.8056 38.4197C18.1302 38.0269 17.2798 38.0122 15.5792 37.9829C13.0684 37.9396 11.4938 37.7858 10.1732 37.2388C7.72288 36.2239 5.77614 34.2771 4.7612 31.8268C4 29.9891 4 27.6594 4 23V21C4 14.4531 4 11.1797 5.4736 8.77501C6.29816 7.42946 7.42946 6.29816 8.77501 5.4736C11.1797 4 14.4531 4 21 4H27C33.5469 4 36.8203 4 39.225 5.4736C40.5705 6.29816 41.7018 7.42946 42.5264 8.77501C44 11.1797 44 14.4531 44 21V23C44 27.6594 44 29.9891 43.2388 31.8268C42.2239 34.2771 40.2771 36.2239 37.8268 37.2388C36.5062 37.7858 34.9315 37.9396 32.4208 37.9829C30.7201 38.0122 29.8697 38.0269 29.1943 38.4197C28.5189 38.8125 28.0985 39.5229 27.2575 40.9437Z" fill="#0787FE"/>
<path d="M21.9801 28.6165C19.3266 26.6608 15 22.9347 15 19.4295C15 14.0752 19.9501 12.0761 24 16.2123C28.0499 12.0761 33 14.0752 33 19.4295C33 22.9348 28.6734 26.6609 26.0199 28.6165C25.1116 29.2859 24.6574 29.6206 24 29.6206C23.3426 29.6206 22.8885 29.2859 21.9801 28.6165Z" fill="#0787FE"/>
</svg>
